<?xml version="1.0" encoding="utf-8"?>
<!-- Generator: Adobe Illustrator 16.0.0, SVG Export Plug-In . SVG Version: 6.00 Build 0)  -->
<!DOCTYPE svg PUBLIC "-//W3C//DTD SVG 1.1//EN" "http://www.w3.org/Graphics/SVG/1.1/DTD/svg11.dtd">
<svg version="1.1" id="Layer_1" xmlns="http://www.w3.org/2000/svg" xmlns:xlink="http://www.w3.org/1999/xlink" x="0px" y="0px"
	 width="875px" height="310px" viewBox="0 0 875 310" enable-background="new 0 0 875 310" xml:space="preserve">
<text transform="matrix(1 0 0 1 150.7031 176.0532)"><tspan x="0" y="0" font-family="'MyriadPro-Bold'" font-size="100">Minha </tspan><tspan x="302.197" y="0" fill="#2B3990" font-family="'MyriadPro-Bold'" font-size="100">Grade</tspan></text>
<g display="none">
	<path display="inline" fill-rule="evenodd" clip-rule="evenodd" d="M1072.928,179.842c-8.088,3.178-15.66,6.141-23.219,9.135
		c-16.619,6.581-33.229,13.194-49.855,19.766c-5.596,2.21-11.24,2.305-16.904,0.171c-26.166-9.825-52.355-19.619-78.493-29.531
		c-1.405-0.535-2.45-2.017-3.666-3.062c1.21-1.044,2.248-2.508,3.653-3.064c26.271-10.503,52.568-20.938,78.905-31.266
		c5.005-1.96,10.253-1.846,15.31,0.044c26.395,9.87,52.766,19.785,79.113,29.775c1.326,0.504,2.33,1.865,3.477,2.83
		c-0.932,1.004-1.951,1.94-2.779,3.029c-0.596,0.786-1.343,1.767-1.336,2.659c0.06,16.429,0.195,32.859,0.43,49.285
		c0.013,1.017,0.801,2.201,1.558,2.985c1.795,1.83,2.751,3.741,2.146,6.397c-0.222,0.979,0.031,2.206,0.442,3.156
		c2.4,5.505,2.629,11.152,1.555,16.977c-0.352,1.884-1.066,2.761-3.09,2.682c-2.943-0.107-5.903-0.096-8.834,0.089
		c-2.018,0.123-2.783-0.706-3.18-2.577c-1.24-5.799-1.11-11.453,1.217-16.993c0.373-0.88,0.753-2.007,0.521-2.85
		c-0.822-3.016-0.027-5.273,2.429-7.159c0.582-0.45,1.003-1.502,1-2.267C1073.235,213.516,1073.074,196.987,1072.928,179.842z"/>
	<path display="inline" fill-rule="evenodd" clip-rule="evenodd" d="M939.233,200.032c14.773,5.622,28.848,10.928,42.88,16.341
		c6.354,2.449,12.539,2.316,18.833-0.247c13.197-5.395,26.452-10.655,39.687-15.951c0.709-0.282,1.469-0.435,2.574-0.758
		c0.082,9.206,0.158,18.127,0.24,27.048c0.016,1.582,0.102,3.172,0.045,4.755c-0.207,5.637-3.014,9.553-8.538,10.769
		c-12.488,2.748-24.985,5.56-37.598,7.591c-10.671,1.717-21.178-1.069-31.634-3.025c-5.773-1.082-11.5-2.403-17.227-3.736
		c-6.092-1.424-8.921-5.165-8.956-11.402c-0.05-9.063-0.177-18.126-0.272-27.191C939.258,203.014,939.249,201.797,939.233,200.032z"
		/>
</g>
<g>
	<path fill-rule="evenodd" clip-rule="evenodd" d="M567.897,115.665c-2.454,0.965-4.752,1.864-7.046,2.772
		c-5.043,1.997-10.083,4.003-15.128,5.998c-1.698,0.67-3.412,0.699-5.13,0.052c-7.94-2.981-15.887-5.953-23.818-8.961
		c-0.427-0.162-0.743-0.611-1.112-0.929c0.366-0.317,0.682-0.761,1.107-0.93c7.974-3.187,15.952-6.354,23.945-9.488
		c1.518-0.594,3.11-0.56,4.645,0.014c8.01,2.995,16.013,6.003,24.007,9.035c0.403,0.153,0.707,0.566,1.055,0.859
		c-0.281,0.305-0.591,0.589-0.844,0.919c-0.181,0.238-0.407,0.536-0.404,0.807c0.018,4.985,0.06,9.971,0.131,14.955
		c0.003,0.309,0.243,0.668,0.472,0.906c0.544,0.556,0.835,1.135,0.651,1.941c-0.068,0.297,0.009,0.669,0.135,0.958
		c0.728,1.67,0.797,3.384,0.471,5.151c-0.105,0.572-0.323,0.838-0.937,0.813c-0.895-0.032-1.792-0.029-2.682,0.027
		c-0.611,0.037-0.845-0.214-0.964-0.782c-0.376-1.759-0.337-3.475,0.368-5.156c0.114-0.267,0.229-0.609,0.159-0.865
		c-0.25-0.915-0.009-1.6,0.735-2.172c0.178-0.137,0.306-0.456,0.305-0.688C567.99,125.883,567.941,120.867,567.897,115.665z"/>
	<path fill-rule="evenodd" clip-rule="evenodd" d="M527.328,121.792c4.482,1.706,8.754,3.316,13.013,4.958
		c1.927,0.743,3.804,0.703,5.714-0.075c4.005-1.637,8.027-3.233,12.043-4.84c0.216-0.086,0.445-0.132,0.781-0.23
		c0.024,2.793,0.048,5.501,0.072,8.208c0.005,0.48,0.031,0.962,0.014,1.442c-0.063,1.71-0.914,2.899-2.591,3.268
		c-3.789,0.833-7.581,1.687-11.409,2.303c-3.238,0.521-6.426-0.324-9.599-0.918c-1.752-0.329-3.489-0.729-5.228-1.134
		c-1.848-0.433-2.706-1.567-2.718-3.46c-0.016-2.75-0.054-5.5-0.082-8.251C527.336,122.696,527.333,122.327,527.328,121.792z"/>
</g>
</svg>
